<svg width="229px" height="160px" viewbox="0 0 229 160" version="1.1" xmlns="http://www.w3.org/2000/svg" xmlns:xlink="http://www.w3.org/1999/xlink">
<!-- // 57D743 -->
<path id="Combined-Shape-Copy-4" d="M159,4.13882491e-14 C159,41.4213562 125.421356,75 84,75 C84,33.5786438 117.578644,5.68434189e-14 159,5.68434189e-14 Z" fill="#57D743"></path><path id="MacBro-Copy-3" d="M5.28320312,124.912109 L5.28320312,85.8320312 L5.58203125,85.8320312 L22.1171875,124.679688 L26.0683594,124.679688 L42.6035156,85.8320312 L42.9355469,85.8320312 L42.9355469,124.912109 L47.1855469,124.912109 L47.1855469,77 L41.9394531,77 L24.3085937,118.703125 L23.9101562,118.703125 L6.21289062,77 L1,77 L1,124.912109 L5.28320312,124.912109 Z M68.2308594,121.658203 C74.6390625,121.658203 79.5199219,117.275391 79.5199219,111.597656 L79.5199219,107.414062 L68.928125,108.177734 C62.8519531,108.609375 59.9300781,110.867188 59.9300781,114.951172 C59.9300781,119.068359 63.4164063,121.658203 68.2308594,121.658203 Z M67.5003906,125.509766 C60.4945313,125.509766 55.4476563,121.425781 55.4476563,115.017578 C55.4476563,108.775391 60.0628906,105.15625 68.3304688,104.591797 L79.5199219,103.861328 L79.5199219,100.408203 C79.5199219,95.2949219 76.4320313,92.4394531 70.6214844,92.4394531 C65.7074219,92.4394531 62.1546875,94.53125 61.2914063,97.984375 L56.8753906,97.984375 C57.7054688,92.3066406 63.2503906,88.5546875 70.7542969,88.5546875 C79.1546875,88.5546875 83.9027344,92.9375 83.9027344,100.375 L83.9027344,124.912109 L79.7191406,124.912109 L79.7191406,118.769531 L79.3207031,118.769531 C77.1292969,123.019531 72.7464844,125.509766 67.5003906,125.509766 Z M122.479297,99.6777344 C121.416797,93.4355469 116.004688,88.5546875 107.803516,88.5546875 C97.9421875,88.5546875 91.7,95.7265625 91.7,106.916016 C91.7,118.271484 97.9753907,125.509766 107.836719,125.509766 C116.004688,125.509766 121.350391,121.027344 122.446094,114.619141 L118.030078,114.619141 C116.934375,119.001953 113.082813,121.558594 107.803516,121.558594 C100.73125,121.558594 96.1824219,115.847656 96.1824219,106.916016 C96.1824219,98.0839844 100.698047,92.4726562 107.803516,92.4726562 C113.282031,92.4726562 116.967578,95.5605469 118.063281,99.6777344 L122.479297,99.6777344 Z M148.239453,124.912109 L130.641797,124.912109 L130.641797,77 L147.874219,77 C156.70625,77 162.118359,81.5488281 162.118359,88.8203125 C162.118359,94.1992188 158.432813,98.4824219 153.352734,99.3789062 L153.352734,99.8105469 C160.092969,100.541016 164.575391,105.089844 164.575391,111.664062 C164.575391,119.998047 158.632031,124.912109 148.239453,124.912109 Z M135.190625,81.0175781 L135.190625,98.1171875 L145.915234,98.1171875 C153.319531,98.1171875 157.536328,95.1289062 157.536328,89.5507812 C157.536328,84.171875 153.551953,81.0175781 147.010938,81.0175781 L135.190625,81.0175781 Z M135.190625,120.894531 L147.608594,120.894531 C155.64375,120.894531 159.926953,117.574219 159.926953,111.431641 C159.926953,105.355469 155.378125,102.068359 147.044141,102.068359 L135.190625,102.068359 L135.190625,120.894531 Z M172.505469,124.912109 L176.855078,124.912109 L176.855078,102.599609 C176.855078,96.9550781 180.972266,92.7714844 186.517188,92.7714844 C187.812109,92.7714844 189.605078,92.9707031 190.401953,93.203125 L190.401953,88.8535156 C189.439063,88.6210938 188.24375,88.5546875 187.048438,88.5546875 C182.300391,88.5546875 178.282813,91.1445312 177.0875,95.0292969 L176.655859,95.0292969 L176.655859,89.1523438 L172.505469,89.1523438 L172.505469,124.912109 Z M210.916016,121.558594 C218.287109,121.558594 222.669922,116.080078 222.669922,107.015625 C222.669922,97.9511719 218.287109,92.4726562 210.916016,92.4726562 C203.544922,92.4726562 199.162109,97.9511719 199.162109,107.015625 C199.162109,116.080078 203.544922,121.558594 210.916016,121.558594 Z M210.916016,125.509766 C200.921875,125.509766 194.679688,118.4375 194.679688,107.015625 C194.679688,95.59375 200.921875,88.5546875 210.916016,88.5546875 C220.910156,88.5546875 227.185547,95.59375 227.185547,107.015625 C227.185547,118.4375 220.910156,125.509766 210.916016,125.509766 Z" fill="#3C4858"></path><path id="service-room-copy-3" d="M2.805,154.183 L0,154.183 C0.04400022,155.239005 0.26399802,156.135496 0.66,156.8725 C1.05600198,157.609504 1.5839967,158.203498 2.244,158.6545 C2.9040033,159.105502 3.66299571,159.429999 4.521,159.628 C5.37900429,159.826001 6.28099527,159.925 7.227,159.925 C8.08500429,159.925 8.94849565,159.842501 9.8175,159.6775 C10.6865043,159.512499 11.4674965,159.221002 12.1605,158.803 C12.8535035,158.384998 13.4144979,157.835003 13.8435,157.153 C14.2725021,156.470997 14.487,155.613005 14.487,154.579 C14.487,153.764996 14.3275016,153.083003 14.0085,152.533 C13.6894984,151.982997 13.2715026,151.526502 12.7545,151.1635 C12.2374974,150.800498 11.6435034,150.509001 10.9725,150.289 C10.3014966,150.068999 9.61400352,149.882001 8.91,149.728 C8.2499967,149.573999 7.5900033,149.425501 6.93,149.2825 C6.2699967,149.139499 5.67600264,148.963501 5.148,148.7545 C4.61999736,148.545499 4.1855017,148.281502 3.8445,147.9625 C3.50349829,147.643498 3.333,147.242002 3.333,146.758 C3.333,146.317998 3.4429989,145.960501 3.663,145.6855 C3.8830011,145.410499 4.16899824,145.190501 4.521,145.0255 C4.87300176,144.860499 5.26349785,144.745 5.6925,144.679 C6.12150214,144.613 6.54499791,144.58 6.963,144.58 C7.42500231,144.58 7.88149774,144.6295 8.3325,144.7285 C8.78350225,144.8275 9.19599813,144.986999 9.57,145.207 C9.94400187,145.427001 10.2519988,145.718498 10.494,146.0815 C10.7360012,146.444502 10.8789998,146.900997 10.923,147.451 L13.728,147.451 C13.6619997,146.416995 13.4420019,145.553503 13.068,144.8605 C12.6939981,144.167497 12.1935031,143.617502 11.5665,143.2105 C10.9394969,142.803498 10.2190041,142.517501 9.405,142.3525 C8.59099593,142.187499 7.70000484,142.105 6.732,142.105 C5.98399626,142.105 5.2305038,142.198499 4.4715,142.3855 C3.7124962,142.572501 3.03050302,142.858498 2.4255,143.2435 C1.82049697,143.628502 1.32550192,144.128997 0.9405,144.745 C0.555498075,145.361003 0.363,146.097996 0.363,146.956 C0.363,148.056005 0.63799725,148.913997 1.188,149.53 C1.73800275,150.146003 2.42549587,150.624498 3.2505,150.9655 C4.07550413,151.306502 4.97199516,151.570499 5.94,151.7575 C6.90800484,151.944501 7.80449587,152.153499 8.6295,152.3845 C9.45450412,152.615501 10.1419972,152.917998 10.692,153.292 C11.2420027,153.666002 11.517,154.215996 11.517,154.942 C11.517,155.470003 11.3850013,155.904498 11.121,156.2455 C10.8569987,156.586502 10.521502,156.844999 10.1145,157.021 C9.70749797,157.197001 9.26200242,157.318 8.778,157.384 C8.29399758,157.45 7.8320022,157.483 7.392,157.483 C6.81999714,157.483 6.26450269,157.428001 5.7255,157.318 C5.1864973,157.207999 4.70250214,157.026501 4.2735,156.7735 C3.84449785,156.520499 3.49800132,156.179502 3.234,155.7505 C2.96999868,155.321498 2.82700011,154.799003 2.805,154.183 Z M33.186,149.398 C33.1419998,148.737997 32.9935013,148.111003 32.7405,147.517 C32.4874987,146.922997 32.1465021,146.411502 31.7175,145.9825 C31.2884979,145.553498 30.7825029,145.212501 30.1995,144.9595 C29.6164971,144.706499 28.9730035,144.58 28.269,144.58 C27.5429964,144.58 26.8885029,144.706499 26.3055,144.9595 C25.7224971,145.212501 25.2220021,145.558998 24.804,145.999 C24.3859979,146.439002 24.0560012,146.950497 23.814,147.5335 C23.5719988,148.116503 23.4290002,148.737997 23.385,149.398 L33.186,149.398 Z M35.892,154.15 C35.5179981,156.06401 34.6930064,157.504995 33.417,158.473 C32.1409936,159.441005 30.5350097,159.925 28.599,159.925 C27.2349932,159.925 26.052505,159.705002 25.0515,159.265 C24.050495,158.824998 23.2090034,158.209004 22.527,157.417 C21.8449966,156.624996 21.3335017,155.679005 20.9925,154.579 C20.6514983,153.478994 20.4590002,152.280006 20.415,150.982 C20.415,149.683994 20.612998,148.496005 21.009,147.418 C21.405002,146.339995 21.9604964,145.405004 22.6755,144.613 C23.3905036,143.820996 24.2374951,143.205002 25.2165,142.765 C26.1955049,142.324998 27.2679942,142.105 28.434,142.105 C29.9520076,142.105 31.211495,142.418497 32.2125,143.0455 C33.213505,143.672503 34.016497,144.469995 34.6215,145.438 C35.226503,146.406005 35.6444988,147.461994 35.8755,148.606 C36.1065012,149.750006 36.2000002,150.838995 36.156,151.873 L23.385,151.873 C23.3629999,152.621004 23.450999,153.330497 23.649,154.0015 C23.847001,154.672503 24.1659978,155.266497 24.606,155.7835 C25.0460022,156.300503 25.6069966,156.712998 26.289,157.021 C26.9710034,157.329002 27.7739954,157.483 28.698,157.483 C29.8860059,157.483 30.8594962,157.208003 31.6185,156.658 C32.3775038,156.107997 32.8779988,155.272006 33.12,154.15 L35.892,154.15 Z M42.711,142.501 L42.711,159.562 L45.516,159.562 L45.516,151.972 C45.516,150.871994 45.6259989,149.898504 45.846,149.0515 C46.0660011,148.204496 46.4179976,147.484003 46.902,146.89 C47.3860024,146.295997 48.023996,145.845002 48.816,145.537 C49.608004,145.228998 50.5649944,145.075 51.687,145.075 L51.687,142.105 C50.1689924,142.061 48.9150049,142.368997 47.925,143.029 C46.934995,143.689003 46.0990034,144.711993 45.417,146.098 L45.351,146.098 L45.351,142.501 L42.711,142.501 Z M65.238,159.562 L71.475,142.501 L68.538,142.501 L63.885,156.724 L63.819,156.724 L59.034,142.501 L55.899,142.501 L62.235,159.562 L65.238,159.562 Z M80.769,139.432 L80.769,136 L77.964,136 L77.964,139.432 L80.769,139.432 Z M77.964,142.501 L77.964,159.562 L80.769,159.562 L80.769,142.501 L77.964,142.501 Z M100.458,147.979 L103.362,147.979 C103.251999,146.966995 102.988002,146.092504 102.57,145.3555 C102.151998,144.618496 101.618503,144.008002 100.9695,143.524 C100.320497,143.039998 99.5725042,142.682501 98.7255,142.4515 C97.8784958,142.220499 96.9710048,142.105 96.003,142.105 C94.6609933,142.105 93.4840051,142.341498 92.472,142.8145 C91.4599949,143.287502 90.6185034,143.936496 89.9475,144.7615 C89.2764966,145.586504 88.7760017,146.554494 88.446,147.6655 C88.1159983,148.776506 87.951,149.969994 87.951,151.246 C87.951,152.522006 88.1214983,153.693495 88.4625,154.7605 C88.8035017,155.827505 89.3094966,156.745996 89.9805,157.516 C90.6515034,158.286004 91.487495,158.879998 92.4885,159.298 C93.489505,159.716002 94.6389935,159.925 95.937,159.925 C98.1150109,159.925 99.8364937,159.353006 101.1015,158.209 C102.366506,157.064994 103.152998,155.437011 103.461,153.325 L100.59,153.325 C100.413999,154.645007 99.9355039,155.667996 99.1545,156.394 C98.3734961,157.120004 97.2900069,157.483 95.904,157.483 C95.0239956,157.483 94.2650032,157.307002 93.627,156.955 C92.9889968,156.602998 92.472002,156.135503 92.076,155.5525 C91.679998,154.969497 91.3885009,154.304004 91.2015,153.556 C91.0144991,152.807996 90.921,152.038004 90.921,151.246 C90.921,150.387996 91.0089991,149.557504 91.185,148.7545 C91.3610009,147.951496 91.652498,147.242003 92.0595,146.626 C92.466502,146.009997 93.0109966,145.515002 93.693,145.141 C94.3750034,144.766998 95.2219949,144.58 96.234,144.58 C97.4220059,144.58 98.3679965,144.876997 99.072,145.471 C99.7760035,146.065003 100.237999,146.900995 100.458,147.979 Z M122.193,149.398 C122.149,148.737997 122.000501,148.111003 121.7475,147.517 C121.494499,146.922997 121.153502,146.411502 120.7245,145.9825 C120.295498,145.553498 119.789503,145.212501 119.2065,144.9595 C118.623497,144.706499 117.980004,144.58 117.276,144.58 C116.549996,144.58 115.895503,144.706499 115.3125,144.9595 C114.729497,145.212501 114.229002,145.558998 113.811,145.999 C113.392998,146.439002 113.063001,146.950497 112.821,147.5335 C112.578999,148.116503 112.436,148.737997 112.392,149.398 L122.193,149.398 Z M124.899,154.15 C124.524998,156.06401 123.700006,157.504995 122.424,158.473 C121.147994,159.441005 119.54201,159.925 117.606,159.925 C116.241993,159.925 115.059505,159.705002 114.0585,159.265 C113.057495,158.824998 112.216003,158.209004 111.534,157.417 C110.851997,156.624996 110.340502,155.679005 109.9995,154.579 C109.658498,153.478994 109.466,152.280006 109.422,150.982 C109.422,149.683994 109.619998,148.496005 110.016,147.418 C110.412002,146.339995 110.967496,145.405004 111.6825,144.613 C112.397504,143.820996 113.244495,143.205002 114.2235,142.765 C115.202505,142.324998 116.274994,142.105 117.441,142.105 C118.959008,142.105 120.218495,142.418497 121.2195,143.0455 C122.220505,143.672503 123.023497,144.469995 123.6285,145.438 C124.233503,146.406005 124.651499,147.461994 124.8825,148.606 C125.113501,149.750006 125.207,150.838995 125.163,151.873 L112.392,151.873 C112.37,152.621004 112.457999,153.330497 112.656,154.0015 C112.854001,154.672503 113.172998,155.266497 113.613,155.7835 C114.053002,156.300503 114.613997,156.712998 115.296,157.021 C115.978003,157.329002 116.780995,157.483 117.705,157.483 C118.893006,157.483 119.866496,157.208003 120.6255,156.658 C121.384504,156.107997 121.884999,155.272006 122.127,154.15 L124.899,154.15 Z M144.642,142.501 L144.642,159.562 L147.447,159.562 L147.447,151.972 C147.447,150.871994 147.556999,149.898504 147.777,149.0515 C147.997001,148.204496 148.348998,147.484003 148.833,146.89 C149.317002,146.295997 149.954996,145.845002 150.747,145.537 C151.539004,145.228998 152.495994,145.075 153.618,145.075 L153.618,142.105 C152.099992,142.061 150.846005,142.368997 149.856,143.029 C148.865995,143.689003 148.030003,144.711993 147.348,146.098 L147.282,146.098 L147.282,142.501 L144.642,142.501 Z M160.932,151.048 C160.932,152.082005 161.069499,153.000496 161.3445,153.8035 C161.619501,154.606504 161.998998,155.277497 162.483,155.8165 C162.967002,156.355503 163.533497,156.767999 164.1825,157.054 C164.831503,157.340001 165.518996,157.483 166.245,157.483 C166.971004,157.483 167.658497,157.340001 168.3075,157.054 C168.956503,156.767999 169.522998,156.355503 170.007,155.8165 C170.491002,155.277497 170.870499,154.606504 171.1455,153.8035 C171.420501,153.000496 171.558,152.082005 171.558,151.048 C171.558,150.013995 171.420501,149.095504 171.1455,148.2925 C170.870499,147.489496 170.491002,146.813003 170.007,146.263 C169.522998,145.712997 168.956503,145.295001 168.3075,145.009 C167.658497,144.722999 166.971004,144.58 166.245,144.58 C165.518996,144.58 164.831503,144.722999 164.1825,145.009 C163.533497,145.295001 162.967002,145.712997 162.483,146.263 C161.998998,146.813003 161.619501,147.489496 161.3445,148.2925 C161.069499,149.095504 160.932,150.013995 160.932,151.048 Z M157.962,151.048 C157.962,149.793994 158.137998,148.622505 158.49,147.5335 C158.842002,146.444495 159.369996,145.498504 160.074,144.6955 C160.778004,143.892496 161.646995,143.260002 162.681,142.798 C163.715005,142.335998 164.902993,142.105 166.245,142.105 C167.609007,142.105 168.802495,142.335998 169.8255,142.798 C170.848505,143.260002 171.711996,143.892496 172.416,144.6955 C173.120004,145.498504 173.647998,146.444495 174,147.5335 C174.352002,148.622505 174.528,149.793994 174.528,151.048 C174.528,152.302006 174.352002,153.467995 174,154.546 C173.647998,155.624005 173.120004,156.564496 172.416,157.3675 C171.711996,158.170504 170.848505,158.797498 169.8255,159.2485 C168.802495,159.699502 167.609007,159.925 166.245,159.925 C164.902993,159.925 163.715005,159.699502 162.681,159.2485 C161.646995,158.797498 160.778004,158.170504 160.074,157.3675 C159.369996,156.564496 158.842002,155.624005 158.49,154.546 C158.137998,153.467995 157.962,152.302006 157.962,151.048 Z M183.624,151.048 C183.624,152.082005 183.761499,153.000496 184.0365,153.8035 C184.311501,154.606504 184.690998,155.277497 185.175,155.8165 C185.659002,156.355503 186.225497,156.767999 186.8745,157.054 C187.523503,157.340001 188.210996,157.483 188.937,157.483 C189.663004,157.483 190.350497,157.340001 190.9995,157.054 C191.648503,156.767999 192.214998,156.355503 192.699,155.8165 C193.183002,155.277497 193.562499,154.606504 193.8375,153.8035 C194.112501,153.000496 194.25,152.082005 194.25,151.048 C194.25,150.013995 194.112501,149.095504 193.8375,148.2925 C193.562499,147.489496 193.183002,146.813003 192.699,146.263 C192.214998,145.712997 191.648503,145.295001 190.9995,145.009 C190.350497,144.722999 189.663004,144.58 188.937,144.58 C188.210996,144.58 187.523503,144.722999 186.8745,145.009 C186.225497,145.295001 185.659002,145.712997 185.175,146.263 C184.690998,146.813003 184.311501,147.489496 184.0365,148.2925 C183.761499,149.095504 183.624,150.013995 183.624,151.048 Z M180.654,151.048 C180.654,149.793994 180.829998,148.622505 181.182,147.5335 C181.534002,146.444495 182.061996,145.498504 182.766,144.6955 C183.470004,143.892496 184.338995,143.260002 185.373,142.798 C186.407005,142.335998 187.594993,142.105 188.937,142.105 C190.301007,142.105 191.494495,142.335998 192.5175,142.798 C193.540505,143.260002 194.403996,143.892496 195.108,144.6955 C195.812004,145.498504 196.339998,146.444495 196.692,147.5335 C197.044002,148.622505 197.22,149.793994 197.22,151.048 C197.22,152.302006 197.044002,153.467995 196.692,154.546 C196.339998,155.624005 195.812004,156.564496 195.108,157.3675 C194.403996,158.170504 193.540505,158.797498 192.5175,159.2485 C191.494495,159.699502 190.301007,159.925 188.937,159.925 C187.594993,159.925 186.407005,159.699502 185.373,159.2485 C184.338995,158.797498 183.470004,158.170504 182.766,157.3675 C182.061996,156.564496 181.534002,155.624005 181.182,154.546 C180.829998,153.467995 180.654,152.302006 180.654,151.048 Z M204.27,142.501 L204.27,159.562 L207.075,159.562 L207.075,148.936 C207.075,148.605998 207.157499,148.193502 207.3225,147.6985 C207.487501,147.203498 207.751498,146.725002 208.1145,146.263 C208.477502,145.800998 208.950497,145.405002 209.5335,145.075 C210.116503,144.744998 210.814996,144.58 211.629,144.58 C212.267003,144.58 212.789498,144.673499 213.1965,144.8605 C213.603502,145.047501 213.927999,145.311498 214.17,145.6525 C214.412001,145.993502 214.5825,146.394998 214.6815,146.857 C214.7805,147.319002 214.83,147.824997 214.83,148.375 L214.83,159.562 L217.635,159.562 L217.635,148.936 C217.635,147.615993 218.030996,146.560004 218.823,145.768 C219.615004,144.975996 220.703993,144.58 222.09,144.58 C222.772003,144.58 223.327498,144.678999 223.7565,144.877 C224.185502,145.075001 224.520999,145.344498 224.763,145.6855 C225.005001,146.026502 225.17,146.427998 225.258,146.89 C225.346,147.352002 225.39,147.846997 225.39,148.375 L225.39,159.562 L228.195,159.562 L228.195,147.055 C228.195,146.174996 228.057501,145.421503 227.7825,144.7945 C227.507499,144.167497 227.122502,143.656002 226.6275,143.26 C226.132498,142.863998 225.538503,142.572501 224.8455,142.3855 C224.152497,142.198499 223.377004,142.105 222.519,142.105 C221.396994,142.105 220.368505,142.357997 219.4335,142.864 C218.498495,143.370003 217.745003,144.084995 217.173,145.009 C216.820998,143.952995 216.216004,143.205002 215.358,142.765 C214.499996,142.324998 213.543005,142.105 212.487,142.105 C210.088988,142.105 208.252006,143.07299 206.976,145.009 L206.91,145.009 L206.91,142.501 L204.27,142.501 Z" fill="#3C4858"></path></svg>